<?xml version="1.0" encoding="UTF-8"?>
<svg width="21px" height="21px" viewBox="0 0 21 21" version="1.1" xmlns="http://www.w3.org/2000/svg" xmlns:xlink="http://www.w3.org/1999/xlink">
    <title>宠物</title>
    <g id="日记" stroke="none" stroke-width="1" fill="none" fill-rule="evenodd">
        <g id="宠物" transform="translate(10.5, 10.5) scale(-1, 1) translate(-10.5, -10.5)" fill="#000000" fill-rule="nonzero">
            <rect id="矩形" opacity="0" x="0" y="0" width="21" height="21"></rect>
            <path d="M4.57000195,6.48362695 C4.57000195,6.84236583 4.86081727,7.13318115 5.21955615,7.13318115 C5.57829503,7.13318115 5.86911035,6.84236583 5.86911035,6.48362695 C5.86911035,6.12488807 5.57829503,5.83407275 5.21955615,5.83407275 C4.86081727,5.83407275 4.57000195,6.12488807 4.57000195,6.48362695 L4.57000195,6.48362695 Z M11.1826641,9.90127441 C10.9414307,9.90127441 10.7459707,9.70583496 10.7459707,9.46458105 L10.7459707,5.45399121 C10.7459707,3.47562305 9.13637402,1.86602637 7.15800586,1.86602637 C5.1796377,1.86602637 3.57004102,3.47562305 3.57004102,5.45399121 C3.57004102,5.69522461 3.37458105,5.89068457 3.13334766,5.89068457 C2.89211426,5.89068457 2.6966543,5.69524512 2.6966543,5.45399121 C2.6966543,2.99401758 4.69801172,0.992639648 7.15800586,0.992639648 C9.618,0.992639648 11.6193574,2.99399707 11.6193574,5.45399121 L11.6193574,9.46456055 C11.6193574,9.70579395 11.4238975,9.90127441 11.1826641,9.90127441 L11.1826641,9.90127441 Z M9.1665,19.7221172 C8.19545508,19.7221172 7.40549414,18.9320332 7.40549414,17.9611113 L7.40549414,13.2976143 L5.7322002,10.9753711 C4.59440625,11.4531416 3.11230664,11.2497246 2.22327246,10.7226123 C1.11931641,10.0677158 0.286986328,9.01691602 0.102908203,8.04572754 C-0.00795703125,7.46090625 0.110024414,6.92456543 0.444219727,6.49453711 C0.592204102,6.30404004 0.866557617,6.26964844 1.05705469,6.41763281 C1.24753125,6.56561719 1.28192285,6.8399707 1.13395898,7.03044727 C0.955417969,7.26003223 0.897257812,7.54691602 0.960955078,7.88310059 C1.09839844,8.6076416 1.7847334,9.44692383 2.66878418,9.97147266 C3.32226563,10.3589883 4.72005762,10.5996475 5.64405762,10.0439678 C5.83838965,9.9267041 6.09057422,9.97844531 6.2233418,10.1629541 L8.19643945,12.9012598 C8.25004291,12.9756018 8.27888631,13.0649302 8.27888086,13.156582 L8.27888086,17.9610908 C8.27888086,18.4503867 8.67706055,18.8486689 9.16647949,18.8486689 C9.6557959,18.8486689 10.0539551,18.4503662 10.0539551,17.9610908 L10.0539551,15.134499 C10.0539551,14.8932656 10.249415,14.6978057 10.4906484,14.6978057 C10.7318818,14.6978057 10.9273418,14.8932451 10.9273418,15.134499 L10.9273418,17.9610908 C10.9273418,18.9320127 10.1374014,19.7221172 9.1665,19.7221172 L9.1665,19.7221172 Z M0.789222656,7.19934961 C0.61537793,7.19934961 0.451048828,7.0948623 0.383085938,6.92329395 C0.294246094,6.69912305 0.404003906,6.44537988 0.628297852,6.35651953 L2.9725459,5.4279668 C3.19659375,5.3389834 3.45033691,5.4487207 3.53932031,5.67319922 C3.62816016,5.89734961 3.51842285,6.15111328 3.2941084,6.23995313 L0.949860352,7.16850586 C0.898743044,7.18884033 0.844235998,7.19930613 0.789222656,7.19934961 L0.789222656,7.19934961 Z M10.5967148,9.99624609 C8.91146484,9.99624609 7.54039453,8.31157031 7.54039453,6.24095801 L7.54039453,4.70697363 C7.54039453,4.46571973 7.73583398,4.27028027 7.97708789,4.27028027 C8.21832129,4.27028027 8.41378125,4.46571973 8.41378125,4.70697363 L8.41378125,6.24095801 C8.41378125,7.83008789 9.39307031,9.12283887 10.5966943,9.12283887 C10.7161804,9.12285463 10.8353067,9.10974674 10.9519307,9.08375098 C11.1869297,9.03129199 11.4206367,9.17985059 11.4730957,9.41523926 C11.5253906,9.65066895 11.3769961,9.8839248 11.1415869,9.93638379 C10.9626766,9.97611319 10.7799628,9.99618628 10.5966943,9.99624609 L10.5967148,9.99624609 Z M6.8719834,11.4894199 C6.68975098,11.4894199 6.51957715,11.3744121 6.45817676,11.1921797 C6.38170313,10.9653018 6.50196094,10.7196592 6.72728027,10.6406221 C6.93810059,10.5506338 7.972125,9.78739453 8.81282227,9.1289502 C9.00272461,8.9803916 9.27724219,9.01351172 9.42592383,9.20357812 C9.57460547,9.39348047 9.54121875,9.667875 9.3512959,9.8167002 C8.63058984,10.3811982 7.3681084,11.3461318 7.01158008,11.4663896 C6.96661173,11.4816141 6.91945904,11.4893933 6.8719834,11.4894199 L6.8719834,11.4894199 Z M17.8835918,15.5696748 L10.4189326,15.5696748 C10.2055693,15.5696748 10.0324629,15.3748916 10.0324629,15.134499 C10.0324629,14.8941064 10.2055488,14.6993232 10.4189326,14.6993232 L17.8835713,14.6993232 C18.0969551,14.6993232 18.2700615,14.8940859 18.2700615,15.134499 C18.2700615,15.3749121 18.0969551,15.5696748 17.8835918,15.5696748 Z M19.1290107,20.0073604 C18.2053594,20.0073604 17.453707,19.2558516 17.453707,18.3320771 L17.453707,15.2236055 C17.453707,14.9831924 17.6486338,14.7884092 17.8888828,14.7884092 C18.1291318,14.7884092 18.3240586,14.9831924 18.3240586,15.223585 L18.3240586,18.3320771 C18.3240586,18.7759072 18.6850166,19.1370088 19.1289902,19.1370088 C19.5729844,19.1370088 19.9339219,18.7759072 19.9339219,18.3320771 L19.9339219,13.1856826 C19.9339219,12.9452695 20.1288691,12.7505068 20.3691182,12.7505068 C20.6093672,12.7505068 20.8042939,12.9452695 20.8042939,13.1856826 L20.8042939,18.3320771 C20.8042939,19.2558516 20.0526416,20.0073604 19.1290107,20.0073604 Z M19.9376543,7.9555752 L20.811,7.9555752 L20.811,14.3216104 L19.9376543,14.3216104 L19.9376543,7.9555752 L19.9376543,7.9555752 Z M11.1825205,8.49849902 C10.943707,8.49849902 10.7488008,8.30632031 10.7459426,8.06678906 C10.7432637,7.82569922 10.9364678,7.62794238 11.1776807,7.6251123 L20.3693643,7.51892285 C20.6052041,7.52091211 20.8081904,7.70939941 20.8110486,7.95063281 C20.8137275,8.19172266 20.6205439,8.38947949 20.3793105,8.39230957 L11.1876475,8.49849902 L11.1825205,8.49849902 L11.1825205,8.49849902 Z M20.373917,8.14865625 C20.144332,8.14865625 19.9518662,7.96954102 19.9383516,7.73726953 C19.9333887,7.65226465 19.949877,7.5720791 19.9771729,7.43916797 C20.1304072,6.69370898 20.1879932,5.89168945 19.4521934,5.59487988 C19.2284531,5.50460449 19.1202539,5.25014355 19.2105293,5.02654688 C19.3008047,4.80280664 19.554835,4.69460742 19.7788623,4.78488281 C20.7810586,5.18917383 21.1357207,6.14131055 20.8327793,7.61504297 C20.8232637,7.66139063 20.814876,7.69875586 20.8108975,7.72535449 C20.8042119,7.94923828 20.6275166,8.13475195 20.3996543,8.14797949 C20.3911025,8.14838965 20.3824277,8.14865625 20.373917,8.14865625 L20.373917,8.14865625 Z" id="形状"></path>
        </g>
    </g>
</svg>