<?xml version="1.0" encoding="UTF-8"?>
<svg width="18px" height="18px" viewBox="0 0 18 18" version="1.1" xmlns="http://www.w3.org/2000/svg" xmlns:xlink="http://www.w3.org/1999/xlink">
    <title>占比图_chart-proportion</title>
    <g id="日记" stroke="none" stroke-width="1" fill="none" fill-rule="evenodd">
        <g id="占比图_chart-proportion" fill="#000000" fill-rule="nonzero">
            <rect id="矩形" opacity="0" x="0" y="0" width="18" height="18"></rect>
            <path d="M16.1249941,11.3250059 C15.8250059,11.1749941 15.525,11.3250059 15.3750059,11.6249941 C14.9999941,12.4500059 14.5499941,13.1999941 13.8749941,13.8749941 C12.6,15.1500059 10.8,15.8999941 9,15.8999941 C5.175,15.8999941 2.10000586,12.825 2.10000586,9 C2.10000586,7.12499414 2.84999414,5.4 4.12500586,4.12500586 C4.80000586,3.45000586 5.54999414,3.00000586 6.37500586,2.62499414 C6.67499414,2.475 6.82500586,2.17499414 6.67499414,1.87500586 C6.525,1.575 6.22499414,1.42500586 5.92500586,1.575 C4.95,1.94999414 4.05,2.55000586 3.29999414,3.29999414 C1.8,4.80000586 0.975005859,6.82500586 0.975005859,9 C0.975005859,13.4249941 4.57500586,17.1 9.07500586,17.1 C11.25,17.1 13.275,16.2750059 14.7749941,14.7749941 C15.525,14.0250059 16.1249941,13.1250059 16.5000059,12.15 C16.5749941,11.7750059 16.425,11.475 16.1249941,11.3250059 Z M9,0.9 C8.69999414,0.9 8.40000586,1.125 8.40000586,1.49999414 L8.40000586,9 C8.40000586,9.30000586 8.62500586,9.59999414 9,9.59999414 L16.5000059,9.59999414 C16.7999941,9.59999414 17.1,9.37499414 17.1,9 C17.1,4.57500586 13.4249941,0.9 9,0.9 L9,0.9 Z M9.59999414,8.40000586 L9.59999414,2.10000586 C12.9749941,2.39999414 15.6749941,5.09999414 15.975,8.47499414 L9.59999414,8.47499414 L9.59999414,8.40000586 Z" id="形状"></path>
        </g>
    </g>
</svg>