<?xml version="1.0" encoding="UTF-8"?>
<svg width="24px" height="24px" viewBox="0 0 24 24" version="1.1" xmlns="http://www.w3.org/2000/svg" xmlns:xlink="http://www.w3.org/1999/xlink">
    <title>房间</title>
    <g id="日记" stroke="none" stroke-width="1" fill="none" fill-rule="evenodd">
        <g id="房间" fill="#000000" fill-rule="nonzero">
            <rect id="矩形" opacity="0" x="0" y="0" width="24" height="24"></rect>
            <path d="M10.59375,19.6179141 L5.85203906,19.6179141 C5.0390625,19.6179141 4.37767969,18.9565547 4.37767969,18.1435547 L4.37767969,9.18309375 C4.37767969,8.85571875 4.64355469,8.58984375 4.97095313,8.58984375 C5.29835156,8.58984375 5.56420313,8.85571875 5.56420313,9.18311719 L5.56420313,18.1435547 C5.56420313,18.3017578 5.69383594,18.4313906 5.85203906,18.4313906 L10.59375,18.4313906 C10.9211484,18.4313906 11.1870234,18.6972656 11.1870234,19.0246641 C11.1870234,19.3520625 10.9211484,19.6179141 10.59375,19.6179141 L10.59375,19.6179141 Z M19.0356562,12.5888672 C18.7082344,12.5888672 18.4423828,12.3229922 18.4423828,11.9955937 L18.4423828,9.31933594 C18.4423828,8.9919375 18.7082578,8.7260625 19.0356562,8.7260625 C19.3630547,8.7260625 19.6289062,8.9919375 19.6289062,9.31933594 L19.6289062,11.9956172 C19.6289062,12.3229922 19.3630312,12.5888672 19.0356328,12.5888672 L19.0356562,12.5888672 Z M18.1523438,19.6179141 L13.4084531,19.6179141 C13.0810547,19.6179141 12.8151797,19.3520625 12.8151797,19.0246641 C12.8151797,18.6972656 13.0810547,18.4313906 13.4084531,18.4313906 L18.1523438,18.4313906 C18.3105469,18.4313906 18.4401797,18.3017578 18.4401797,18.1435547 L18.4401797,16.2165469 C18.4401797,15.8891719 18.7060547,15.6232969 19.0334531,15.6232969 C19.3608516,15.6232969 19.6267086,15.8891484 19.6267086,16.2165469 L19.6267086,18.1435547 C19.6289063,18.9565547 18.9675234,19.6179141 18.1523438,19.6179141 Z M2.59570313,11.6484609 C2.422125,11.6484609 2.24852344,11.5715391 2.13208594,11.4243047 C1.92773438,11.1672422 1.96947656,10.7958984 2.2265625,10.5915703 L10.8925781,3.67896094 C11.2023984,3.43286719 11.5891172,3.296625 11.984625,3.296625 L11.9868281,3.296625 C12.3823359,3.296625 12.7712344,3.43286719 13.0810547,3.68114062 L21.140625,10.1367187 C21.3955078,10.3410703 21.43725,10.7145937 21.2329219,10.9716797 C21.0285469,11.2265625 20.6550234,11.2683047 20.3979609,11.0639766 L12.3361406,4.60617187 C12.1296094,4.43917969 11.8395703,4.43917969 11.6308359,4.60617187 L2.96484375,11.5188281 C2.85717188,11.6067187 2.72533594,11.6484609 2.59570313,11.6484609 L2.59570313,11.6484609 Z M13.4084531,19.6179141 C13.3732969,19.6179141 13.3403203,19.6157344 13.3073672,19.609125 C13.2744141,19.6157344 13.2414609,19.6179141 13.2063047,19.6179141 L10.59375,19.6179141 C10.2663516,19.6179141 10.0004766,19.3520625 10.0004766,19.0246641 L10.0004766,14.8147031 C10.0004766,13.7116641 10.8991641,12.8129766 12.0022031,12.8129766 C12.5361328,12.8129766 13.0393125,13.0217344 13.4172422,13.3996641 C13.7951719,13.7775937 14.0039063,14.28075 14.0039063,14.8147031 L14.0039063,19.0246641 C14.0017031,19.3520391 13.7358281,19.6179141 13.4084531,19.6179141 L13.4084531,19.6179141 Z M11.187,18.4313906 L12.8173828,18.4313906 L12.8173828,14.8147031 C12.8173828,14.5971562 12.7316953,14.3928281 12.577875,14.2390078 C12.4240547,14.0851875 12.2197266,13.9995234 12.0022031,13.9995234 C11.5539609,13.9995234 11.187,14.3642578 11.187,14.8146797 L11.187,18.4313906 L11.187,18.4313906 Z" id="形状"></path>
        </g>
    </g>
</svg>