<?xml version="1.0" encoding="UTF-8"?>
<svg width="19px" height="19px" viewBox="0 0 19 19" version="1.1" xmlns="http://www.w3.org/2000/svg" xmlns:xlink="http://www.w3.org/1999/xlink">
    <title>个人房屋信息</title>
    <g id="日记" stroke="none" stroke-width="1" fill="none" fill-rule="evenodd">
        <g id="个人房屋信息" fill="#000000" fill-rule="nonzero">
            <rect id="矩形" opacity="0" x="0" y="0" width="18.985398" height="18.985398"></rect>
            <path d="M18.4210088,13.0870205 L14.9188518,10.5064896 C14.6423584,10.3221607 14.1815546,10.3221607 13.9050612,10.5064896 L10.4029042,13.0870205 C10.2185753,13.2713494 10.0342464,13.5478243 10.0342464,13.8243177 C10.0342464,14.1008111 10.2185753,14.3772859 10.4029042,14.5616149 L10.4029042,17.9716074 C10.4029042,18.5245942 10.863708,18.985398 11.4166948,18.985398 L17.2229079,18.985398 C17.7758761,18.985398 18.2366984,18.5245942 18.2366984,17.9716074 L18.2366984,14.5616149 C18.3288444,14.4694689 18.4209903,14.4694689 18.5131733,14.3772859 C18.6053192,14.1929755 18.6975022,14.0086466 18.6975022,13.7321532 C18.7896482,13.3635139 18.6053378,13.1791849 18.4210088,13.0870205 L18.4210088,13.0870205 Z M17.1307434,14.0086466 L17.1307434,17.6029681 L15.1953267,17.6029681 L15.1953267,15.8518803 C15.1953267,15.483241 14.9188518,15.2067476 14.550194,15.2067476 C14.1815361,15.2067476 13.9050612,15.483241 13.9050612,15.8518803 L13.9050612,17.6029681 L11.9696631,17.6029681 L11.9696631,14.0086466 C11.9696631,13.9164821 11.9696631,13.8243177 11.8774986,13.7321532 L14.550194,11.796755 L17.2229079,13.7321532 C17.1307434,13.8243177 17.1307434,13.9164821 17.1307434,14.0086466 L17.1307434,14.0086466 Z M14.7345414,4.9767514 C14.7345414,2.21189157 12.5226313,0 9.7577715,0 C6.99289313,0 4.7810201,2.21189157 4.7810201,4.9767514 C4.7810201,6.63567471 5.61046322,8.20241501 6.99289313,9.12405968 C3.02995086,10.3221421 0.172926569,13.9164821 0.172926569,18.2481008 C0.172926569,18.6167587 0.449419968,18.8932335 0.818059293,18.8932335 C1.18669862,18.8932335 1.46319202,18.6167587 1.46319202,18.2481008 C1.46319202,13.6399887 5.14967796,9.95350279 9.75779004,9.95350279 C12.5226499,9.95350279 14.7345414,7.74162976 14.7345414,4.9767514 L14.7345414,4.9767514 Z M6.07128555,4.9767514 C6.07128555,2.94918876 7.73020886,1.29026545 9.7577715,1.29026545 C11.7853341,1.29026545 13.4442574,2.94918876 13.4442574,4.9767514 C13.4442574,7.00431403 11.7853341,8.66323734 9.7577715,8.66323734 C7.73020886,8.66323734 6.07128555,7.00431403 6.07128555,4.9767514 Z" id="形状"></path>
        </g>
    </g>
</svg>